<?xml version="1.0" encoding="UTF-8" standalone="no"?>
<!DOCTYPE svg PUBLIC "-//W3C//DTD SVG 1.1//EN"
 "http://www.w3.org/Graphics/SVG/1.1/DTD/svg11.dtd">
<!-- Generated by graphviz version 2.38.0 (20140413.2041)
 -->
<!-- Title: H Pages: 1 -->
<svg width="779pt" height="755pt"
 viewBox="0.00 0.00 779.00 755.00" xmlns="http://www.w3.org/2000/svg" xmlns:xlink="http://www.w3.org/1999/xlink">
<g id="graph0" class="graph" transform="scale(1 1) rotate(0) translate(4 751)">

<polygon fill="white" stroke="none" points="-4,4 -4,-751 775,-751 775,4 -4,4"/>
<!-- a -->
<g id="node1" class="node">
<path fill="none" stroke="black" d="M313.5,-710.5C313.5,-710.5 454.5,-710.5 454.5,-710.5 460.5,-710.5 466.5,-716.5 466.5,-722.5 466.5,-722.5 466.5,-734.5 466.5,-734.5 466.5,-740.5 460.5,-746.5 454.5,-746.5 454.5,-746.5 313.5,-746.5 313.5,-746.5 307.5,-746.5 301.5,-740.5 301.5,-734.5 301.5,-734.5 301.5,-722.5 301.5,-722.5 301.5,-716.5 307.5,-710.5 313.5,-710.5"/>
<text text-anchor="middle" x="384" y="-724.8" font-family="Times New Roman,serif" font-size="14.00">Nodule pulmonaire ≥ 5mm</text>
</g>
<!-- b1 -->
<g id="node2" class="node">
<path fill="none" stroke="black" d="M315,-637.5C315,-637.5 345,-637.5 345,-637.5 351,-637.5 357,-643.5 357,-649.5 357,-649.5 357,-661.5 357,-661.5 357,-667.5 351,-673.5 345,-673.5 345,-673.5 315,-673.5 315,-673.5 309,-673.5 303,-667.5 303,-661.5 303,-661.5 303,-649.5 303,-649.5 303,-643.5 309,-637.5 315,-637.5"/>
<text text-anchor="middle" x="330" y="-651.8" font-family="Times New Roman,serif" font-size="14.00">Solide</text>
</g>
<!-- a&#45;&gt;b1 -->
<g id="edge1" class="edge">
<path fill="none" stroke="black" d="M370.928,-710.313C364.362,-701.679 356.281,-691.055 349.04,-681.534"/>
<polygon fill="black" stroke="black" points="351.791,-679.37 342.952,-673.529 346.219,-683.607 351.791,-679.37"/>
</g>
<!-- b2 -->
<g id="node3" class="node">
<path fill="none" stroke="black" d="M407,-637.5C407,-637.5 469,-637.5 469,-637.5 475,-637.5 481,-643.5 481,-649.5 481,-649.5 481,-661.5 481,-661.5 481,-667.5 475,-673.5 469,-673.5 469,-673.5 407,-673.5 407,-673.5 401,-673.5 395,-667.5 395,-661.5 395,-661.5 395,-649.5 395,-649.5 395,-643.5 401,-637.5 407,-637.5"/>
<text text-anchor="middle" x="438" y="-651.8" font-family="Times New Roman,serif" font-size="14.00">Verre dépoli</text>
</g>
<!-- a&#45;&gt;b2 -->
<g id="edge2" class="edge">
<path fill="none" stroke="black" d="M397.072,-710.313C403.638,-701.679 411.719,-691.055 418.96,-681.534"/>
<polygon fill="black" stroke="black" points="421.781,-683.607 425.048,-673.529 416.209,-679.37 421.781,-683.607"/>
</g>
<!-- c1 -->
<g id="node4" class="node">
<path fill="none" stroke="black" d="M236.5,-564.5C236.5,-564.5 271.5,-564.5 271.5,-564.5 277.5,-564.5 283.5,-570.5 283.5,-576.5 283.5,-576.5 283.5,-588.5 283.5,-588.5 283.5,-594.5 277.5,-600.5 271.5,-600.5 271.5,-600.5 236.5,-600.5 236.5,-600.5 230.5,-600.5 224.5,-594.5 224.5,-588.5 224.5,-588.5 224.5,-576.5 224.5,-576.5 224.5,-570.5 230.5,-564.5 236.5,-564.5"/>
<text text-anchor="middle" x="254" y="-578.8" font-family="Times New Roman,serif" font-size="14.00">5&#45;8 mm</text>
</g>
<!-- b1&#45;&gt;c1 -->
<g id="edge3" class="edge">
<path fill="none" stroke="black" d="M311.603,-637.313C301.987,-628.33 290.066,-617.193 279.568,-607.386"/>
<polygon fill="black" stroke="black" points="281.925,-604.798 272.228,-600.529 277.146,-609.913 281.925,-604.798"/>
</g>
<!-- c2 -->
<g id="node5" class="node">
<path fill="none" stroke="black" d="M314,-564.5C314,-564.5 346,-564.5 346,-564.5 352,-564.5 358,-570.5 358,-576.5 358,-576.5 358,-588.5 358,-588.5 358,-594.5 352,-600.5 346,-600.5 346,-600.5 314,-600.5 314,-600.5 308,-600.5 302,-594.5 302,-588.5 302,-588.5 302,-576.5 302,-576.5 302,-570.5 308,-564.5 314,-564.5"/>
<text text-anchor="middle" x="330" y="-578.8" font-family="Times New Roman,serif" font-size="14.00">&gt;8 mm</text>
</g>
<!-- b1&#45;&gt;c2 -->
<g id="edge4" class="edge">
<path fill="none" stroke="black" d="M330,-637.313C330,-629.289 330,-619.547 330,-610.569"/>
<polygon fill="black" stroke="black" points="333.5,-610.529 330,-600.529 326.5,-610.529 333.5,-610.529"/>
</g>
<!-- b3 -->
<g id="node18" class="node">
<path fill="none" stroke="black" d="M493,-344.5C493,-344.5 567,-344.5 567,-344.5 573,-344.5 579,-350.5 579,-356.5 579,-356.5 579,-368.5 579,-368.5 579,-374.5 573,-380.5 567,-380.5 567,-380.5 493,-380.5 493,-380.5 487,-380.5 481,-374.5 481,-368.5 481,-368.5 481,-356.5 481,-356.5 481,-350.5 487,-344.5 493,-344.5"/>
<text text-anchor="middle" x="530" y="-358.8" font-family="Times New Roman,serif" font-size="14.00">TDM à 3 mois</text>
</g>
<!-- b2&#45;&gt;b3 -->
<g id="edge18" class="edge">
<path fill="none" stroke="black" d="M443.48,-637.109C458.843,-588.347 502.431,-450.002 521.212,-390.391"/>
<polygon fill="black" stroke="black" points="524.649,-391.132 524.315,-380.542 517.972,-389.028 524.649,-391.132"/>
</g>
<!-- c1&#45;&gt;c2 -->
<!-- g1 -->
<g id="node6" class="node">
<path fill="none" stroke="black" d="M158,-180.5C158,-180.5 268,-180.5 268,-180.5 274,-180.5 280,-186.5 280,-192.5 280,-192.5 280,-221.5 280,-221.5 280,-227.5 274,-233.5 268,-233.5 268,-233.5 158,-233.5 158,-233.5 152,-233.5 146,-227.5 146,-221.5 146,-221.5 146,-192.5 146,-192.5 146,-186.5 152,-180.5 158,-180.5"/>
<text text-anchor="middle" x="213" y="-218.3" font-family="Times New Roman,serif" font-size="14.00">Surveillance en TDM</text>
<text text-anchor="middle" x="213" y="-203.3" font-family="Times New Roman,serif" font-size="14.00">5&#45;6mm à 1 an</text>
<text text-anchor="middle" x="213" y="-188.3" font-family="Times New Roman,serif" font-size="14.00">6&#45;8mm à 3 mois.</text>
</g>
<!-- c1&#45;&gt;g1 -->
<g id="edge5" class="edge">
<path fill="none" stroke="black" d="M241.568,-564.286C223.994,-538.208 194,-486.521 194,-437.5 194,-437.5 194,-437.5 194,-361.5 194,-320.849 200.644,-274.597 206.075,-243.584"/>
<polygon fill="black" stroke="black" points="209.53,-244.144 207.858,-233.681 202.641,-242.903 209.53,-244.144"/>
</g>
<!-- d1 -->
<g id="node9" class="node">
<path fill="none" stroke="blue" d="M285,-491.5C285,-491.5 375,-491.5 375,-491.5 381,-491.5 387,-497.5 387,-503.5 387,-503.5 387,-515.5 387,-515.5 387,-521.5 381,-527.5 375,-527.5 375,-527.5 285,-527.5 285,-527.5 279,-527.5 273,-521.5 273,-515.5 273,-515.5 273,-503.5 273,-503.5 273,-497.5 279,-491.5 285,-491.5"/>
<text text-anchor="middle" x="330" y="-505.8" font-family="Times New Roman,serif" font-size="14.00">Modèle de Brock</text>
</g>
<!-- c2&#45;&gt;d1 -->
<g id="edge7" class="edge">
<path fill="none" stroke="black" d="M330,-564.313C330,-556.289 330,-546.547 330,-537.569"/>
<polygon fill="black" stroke="black" points="333.5,-537.529 330,-527.529 326.5,-537.529 333.5,-537.529"/>
</g>
<!-- h1 -->
<g id="node7" class="node">
<path fill="none" stroke="black" d="M12,-75.5C12,-75.5 120,-75.5 120,-75.5 126,-75.5 132,-81.5 132,-87.5 132,-87.5 132,-131.5 132,-131.5 132,-137.5 126,-143.5 120,-143.5 120,-143.5 12,-143.5 12,-143.5 6,-143.5 0,-137.5 0,-131.5 0,-131.5 0,-87.5 0,-87.5 0,-81.5 6,-75.5 12,-75.5"/>
<text text-anchor="middle" x="66" y="-128.3" font-family="Times New Roman,serif" font-size="14.00">Stable :</text>
<text text-anchor="middle" x="66" y="-113.3" font-family="Times New Roman,serif" font-size="14.00">&#45;à 2 ans en 2D</text>
<text text-anchor="middle" x="66" y="-98.3" font-family="Times New Roman,serif" font-size="14.00">&#45;à 1 an en volumétrie</text>
<text text-anchor="middle" x="66" y="-83.3" font-family="Times New Roman,serif" font-size="14.00">ou VDT&gt;600 jours</text>
</g>
<!-- g1&#45;&gt;h1 -->
<g id="edge27" class="edge">
<path fill="none" stroke="black" d="M173.607,-180.408C158.76,-170.763 141.528,-159.568 125.264,-149.001"/>
<polygon fill="black" stroke="black" points="127.157,-146.057 116.864,-143.544 123.343,-151.927 127.157,-146.057"/>
</g>
<!-- h2 -->
<g id="node25" class="node">
<path fill="none" stroke="black" d="M162.5,-91.5C162.5,-91.5 263.5,-91.5 263.5,-91.5 269.5,-91.5 275.5,-97.5 275.5,-103.5 275.5,-103.5 275.5,-115.5 275.5,-115.5 275.5,-121.5 269.5,-127.5 263.5,-127.5 263.5,-127.5 162.5,-127.5 162.5,-127.5 156.5,-127.5 150.5,-121.5 150.5,-115.5 150.5,-115.5 150.5,-103.5 150.5,-103.5 150.5,-97.5 156.5,-91.5 162.5,-91.5"/>
<text text-anchor="middle" x="213" y="-105.8" font-family="Times New Roman,serif" font-size="14.00">VDT 400&#45;600 jours</text>
</g>
<!-- g1&#45;&gt;h2 -->
<g id="edge28" class="edge">
<path fill="none" stroke="black" d="M213,-180.408C213,-167.242 213,-151.188 213,-137.786"/>
<polygon fill="black" stroke="black" points="216.5,-137.713 213,-127.713 209.5,-137.713 216.5,-137.713"/>
</g>
<!-- h3 -->
<g id="node26" class="node">
<path fill="none" stroke="black" d="M305.5,-91.5C305.5,-91.5 390.5,-91.5 390.5,-91.5 396.5,-91.5 402.5,-97.5 402.5,-103.5 402.5,-103.5 402.5,-115.5 402.5,-115.5 402.5,-121.5 396.5,-127.5 390.5,-127.5 390.5,-127.5 305.5,-127.5 305.5,-127.5 299.5,-127.5 293.5,-121.5 293.5,-115.5 293.5,-115.5 293.5,-103.5 293.5,-103.5 293.5,-97.5 299.5,-91.5 305.5,-91.5"/>
<text text-anchor="middle" x="348" y="-105.8" font-family="Times New Roman,serif" font-size="14.00">VDT &lt;400 jours</text>
</g>
<!-- g1&#45;&gt;h3 -->
<g id="edge29" class="edge">
<path fill="none" stroke="black" d="M249.178,-180.408C269.816,-165.808 295.475,-147.657 315.474,-133.509"/>
<polygon fill="black" stroke="black" points="317.525,-136.346 323.667,-127.713 313.482,-130.631 317.525,-136.346"/>
</g>
<!-- i1 -->
<g id="node8" class="node">
<path fill="none" stroke="green" d="M32,-1.5C32,-1.5 100,-1.5 100,-1.5 106,-1.5 112,-7.5 112,-13.5 112,-13.5 112,-25.5 112,-25.5 112,-31.5 106,-37.5 100,-37.5 100,-37.5 32,-37.5 32,-37.5 26,-37.5 20,-31.5 20,-25.5 20,-25.5 20,-13.5 20,-13.5 20,-7.5 26,-1.5 32,-1.5"/>
<text text-anchor="middle" x="66" y="-15.8" font-family="Times New Roman,serif" font-size="14.00">Arrêt du suivi</text>
</g>
<!-- h1&#45;&gt;i1 -->
<g id="edge6" class="edge">
<path fill="none" stroke="black" d="M66,-75.4817C66,-66.3281 66,-56.4972 66,-47.7155"/>
<polygon fill="black" stroke="black" points="69.5001,-47.6402 66,-37.6402 62.5001,-47.6403 69.5001,-47.6402"/>
</g>
<!-- e1 -->
<g id="node10" class="node">
<path fill="none" stroke="black" d="M235,-418.5C235,-418.5 299,-418.5 299,-418.5 305,-418.5 311,-424.5 311,-430.5 311,-430.5 311,-442.5 311,-442.5 311,-448.5 305,-454.5 299,-454.5 299,-454.5 235,-454.5 235,-454.5 229,-454.5 223,-448.5 223,-442.5 223,-442.5 223,-430.5 223,-430.5 223,-424.5 229,-418.5 235,-418.5"/>
<text text-anchor="middle" x="267" y="-432.8" font-family="Times New Roman,serif" font-size="14.00">risque &lt;10%</text>
</g>
<!-- d1&#45;&gt;e1 -->
<g id="edge8" class="edge">
<path fill="none" stroke="black" d="M314.749,-491.313C307.011,-482.592 297.471,-471.84 288.958,-462.246"/>
<polygon fill="black" stroke="black" points="291.365,-459.686 282.11,-454.529 286.129,-464.332 291.365,-459.686"/>
</g>
<!-- e2 -->
<g id="node11" class="node">
<path fill="none" stroke="black" d="M342,-418.5C342,-418.5 406,-418.5 406,-418.5 412,-418.5 418,-424.5 418,-430.5 418,-430.5 418,-442.5 418,-442.5 418,-448.5 412,-454.5 406,-454.5 406,-454.5 342,-454.5 342,-454.5 336,-454.5 330,-448.5 330,-442.5 330,-442.5 330,-430.5 330,-430.5 330,-424.5 336,-418.5 342,-418.5"/>
<text text-anchor="middle" x="374" y="-432.8" font-family="Times New Roman,serif" font-size="14.00">risque &gt;10%</text>
</g>
<!-- d1&#45;&gt;e2 -->
<g id="edge9" class="edge">
<path fill="none" stroke="black" d="M340.651,-491.313C345.894,-482.853 352.32,-472.484 358.127,-463.112"/>
<polygon fill="black" stroke="black" points="361.154,-464.873 363.447,-454.529 355.204,-461.185 361.154,-464.873"/>
</g>
<!-- e1&#45;&gt;g1 -->
<g id="edge10" class="edge">
<path fill="none" stroke="black" d="M262.941,-418.401C254.171,-381.451 233.293,-293.493 221.496,-243.794"/>
<polygon fill="black" stroke="black" points="224.839,-242.723 219.124,-233.801 218.028,-244.339 224.839,-242.723"/>
</g>
<!-- f1 -->
<g id="node12" class="node">
<path fill="none" stroke="blue" d="M327,-343.5C327,-343.5 421,-343.5 421,-343.5 427,-343.5 433,-349.5 433,-355.5 433,-355.5 433,-369.5 433,-369.5 433,-375.5 427,-381.5 421,-381.5 421,-381.5 327,-381.5 327,-381.5 321,-381.5 315,-375.5 315,-369.5 315,-369.5 315,-355.5 315,-355.5 315,-349.5 321,-343.5 327,-343.5"/>
<text text-anchor="middle" x="374" y="-366.3" font-family="Times New Roman,serif" font-size="14.00">TEP&#45;TDM</text>
<text text-anchor="middle" x="374" y="-351.3" font-family="Times New Roman,serif" font-size="14.00">Modèle de Herder</text>
</g>
<!-- e2&#45;&gt;f1 -->
<g id="edge11" class="edge">
<path fill="none" stroke="black" d="M374,-418.437C374,-410.487 374,-400.813 374,-391.813"/>
<polygon fill="black" stroke="black" points="377.5,-391.699 374,-381.699 370.5,-391.699 377.5,-391.699"/>
</g>
<!-- g2 -->
<g id="node13" class="node">
<path fill="none" stroke="black" d="M272,-270.5C272,-270.5 336,-270.5 336,-270.5 342,-270.5 348,-276.5 348,-282.5 348,-282.5 348,-294.5 348,-294.5 348,-300.5 342,-306.5 336,-306.5 336,-306.5 272,-306.5 272,-306.5 266,-306.5 260,-300.5 260,-294.5 260,-294.5 260,-282.5 260,-282.5 260,-276.5 266,-270.5 272,-270.5"/>
<text text-anchor="middle" x="304" y="-284.8" font-family="Times New Roman,serif" font-size="14.00">risque &lt;10%</text>
</g>
<!-- f1&#45;&gt;g2 -->
<g id="edge12" class="edge">
<path fill="none" stroke="black" d="M356.336,-343.331C347.771,-334.522 337.353,-323.806 328.074,-314.262"/>
<polygon fill="black" stroke="black" points="330.414,-311.648 320.934,-306.918 325.395,-316.527 330.414,-311.648"/>
</g>
<!-- g3 -->
<g id="node14" class="node">
<path fill="none" stroke="black" d="M310,-189C310,-189 384,-189 384,-189 390,-189 396,-195 396,-201 396,-201 396,-213 396,-213 396,-219 390,-225 384,-225 384,-225 310,-225 310,-225 304,-225 298,-219 298,-213 298,-213 298,-201 298,-201 298,-195 304,-189 310,-189"/>
<text text-anchor="middle" x="347" y="-203.3" font-family="Times New Roman,serif" font-size="14.00">risque 10&#45;70%</text>
</g>
<!-- f1&#45;&gt;g3 -->
<g id="edge13" class="edge">
<path fill="none" stroke="black" d="M370.797,-343.289C366.098,-316.578 357.304,-266.578 351.822,-235.414"/>
<polygon fill="black" stroke="black" points="355.213,-234.487 350.033,-225.245 348.319,-235.7 355.213,-234.487"/>
</g>
<!-- g4 -->
<g id="node15" class="node">
<path fill="none" stroke="black" d="M426,-189C426,-189 490,-189 490,-189 496,-189 502,-195 502,-201 502,-201 502,-213 502,-213 502,-219 496,-225 490,-225 490,-225 426,-225 426,-225 420,-225 414,-219 414,-213 414,-213 414,-201 414,-201 414,-195 420,-189 426,-189"/>
<text text-anchor="middle" x="458" y="-203.3" font-family="Times New Roman,serif" font-size="14.00">risque &gt;70%</text>
</g>
<!-- f1&#45;&gt;g4 -->
<g id="edge14" class="edge">
<path fill="none" stroke="black" d="M383.966,-343.289C398.774,-316.228 426.664,-265.264 443.663,-234.199"/>
<polygon fill="black" stroke="black" points="446.833,-235.698 448.563,-225.245 440.692,-232.337 446.833,-235.698"/>
</g>
<!-- g2&#45;&gt;g1 -->
<g id="edge15" class="edge">
<path fill="none" stroke="black" d="M284.254,-270.25C274.22,-261.484 261.695,-250.541 249.956,-240.286"/>
<polygon fill="black" stroke="black" points="252.224,-237.619 242.39,-233.676 247.618,-242.891 252.224,-237.619"/>
</g>
<!-- i2 -->
<g id="node16" class="node">
<path fill="none" stroke="green" d="M246,-1.5C246,-1.5 328,-1.5 328,-1.5 334,-1.5 340,-7.5 340,-13.5 340,-13.5 340,-25.5 340,-25.5 340,-31.5 334,-37.5 328,-37.5 328,-37.5 246,-37.5 246,-37.5 240,-37.5 234,-31.5 234,-25.5 234,-25.5 234,-13.5 234,-13.5 234,-7.5 240,-1.5 246,-1.5"/>
<text text-anchor="middle" x="287" y="-15.8" font-family="Times New Roman,serif" font-size="14.00">Biopsie ou suivi</text>
</g>
<!-- g3&#45;&gt;i2 -->
<g id="edge16" class="edge">
<path fill="none" stroke="black" d="M372.879,-188.931C387.027,-177.975 403.217,-162.376 411,-144 422.96,-115.762 427.764,-100.679 411,-75 397.16,-53.7995 373.028,-40.7917 349.71,-32.8353"/>
<polygon fill="black" stroke="black" points="350.736,-29.4892 340.147,-29.8261 348.635,-36.1664 350.736,-29.4892"/>
</g>
<!-- i3 -->
<g id="node17" class="node">
<path fill="none" stroke="green" d="M445.5,-1.5C445.5,-1.5 564.5,-1.5 564.5,-1.5 570.5,-1.5 576.5,-7.5 576.5,-13.5 576.5,-13.5 576.5,-25.5 576.5,-25.5 576.5,-31.5 570.5,-37.5 564.5,-37.5 564.5,-37.5 445.5,-37.5 445.5,-37.5 439.5,-37.5 433.5,-31.5 433.5,-25.5 433.5,-25.5 433.5,-13.5 433.5,-13.5 433.5,-7.5 439.5,-1.5 445.5,-1.5"/>
<text text-anchor="middle" x="505" y="-15.8" font-family="Times New Roman,serif" font-size="14.00">Décision thérapeutique</text>
</g>
<!-- g4&#45;&gt;i3 -->
<g id="edge17" class="edge">
<path fill="none" stroke="black" d="M462.337,-188.881C470.522,-156.58 488.301,-86.4097 498.127,-47.6265"/>
<polygon fill="black" stroke="black" points="501.61,-48.1309 500.673,-37.5775 494.824,-46.4116 501.61,-48.1309"/>
</g>
<!-- c3 -->
<g id="node19" class="node">
<path fill="none" stroke="black" d="M600,-270.5C600,-270.5 630,-270.5 630,-270.5 636,-270.5 642,-276.5 642,-282.5 642,-282.5 642,-294.5 642,-294.5 642,-300.5 636,-306.5 630,-306.5 630,-306.5 600,-306.5 600,-306.5 594,-306.5 588,-300.5 588,-294.5 588,-294.5 588,-282.5 588,-282.5 588,-276.5 594,-270.5 600,-270.5"/>
<text text-anchor="middle" x="615" y="-284.8" font-family="Times New Roman,serif" font-size="14.00">Stable</text>
</g>
<!-- b3&#45;&gt;c3 -->
<g id="edge19" class="edge">
<path fill="none" stroke="black" d="M551.011,-344.455C561.956,-335.055 575.481,-323.44 587.273,-313.313"/>
<polygon fill="black" stroke="black" points="589.801,-315.756 595.106,-306.585 585.24,-310.445 589.801,-315.756"/>
</g>
<!-- c4 -->
<g id="node20" class="node">
<path fill="none" stroke="black" d="M502.5,-270.5C502.5,-270.5 557.5,-270.5 557.5,-270.5 563.5,-270.5 569.5,-276.5 569.5,-282.5 569.5,-282.5 569.5,-294.5 569.5,-294.5 569.5,-300.5 563.5,-306.5 557.5,-306.5 557.5,-306.5 502.5,-306.5 502.5,-306.5 496.5,-306.5 490.5,-300.5 490.5,-294.5 490.5,-294.5 490.5,-282.5 490.5,-282.5 490.5,-276.5 496.5,-270.5 502.5,-270.5"/>
<text text-anchor="middle" x="530" y="-284.8" font-family="Times New Roman,serif" font-size="14.00">Croissance</text>
</g>
<!-- b3&#45;&gt;c4 -->
<g id="edge20" class="edge">
<path fill="none" stroke="black" d="M530,-344.455C530,-336.201 530,-326.238 530,-317.074"/>
<polygon fill="black" stroke="black" points="533.5,-316.835 530,-306.835 526.5,-316.835 533.5,-316.835"/>
</g>
<!-- d2 -->
<g id="node21" class="node">
<path fill="none" stroke="blue" d="M570,-189C570,-189 660,-189 660,-189 666,-189 672,-195 672,-201 672,-201 672,-213 672,-213 672,-219 666,-225 660,-225 660,-225 570,-225 570,-225 564,-225 558,-219 558,-213 558,-213 558,-201 558,-201 558,-195 564,-189 570,-189"/>
<text text-anchor="middle" x="615" y="-203.3" font-family="Times New Roman,serif" font-size="14.00">Modèle de Brock</text>
</g>
<!-- c3&#45;&gt;d2 -->
<g id="edge22" class="edge">
<path fill="none" stroke="black" d="M615,-270.25C615,-260.04 615,-246.878 615,-235.288"/>
<polygon fill="black" stroke="black" points="618.5,-235.217 615,-225.217 611.5,-235.217 618.5,-235.217"/>
</g>
<!-- c4&#45;&gt;i3 -->
<g id="edge21" class="edge">
<path fill="none" stroke="black" d="M528.398,-270.392C524.175,-225.288 512.71,-102.839 507.562,-47.8637"/>
<polygon fill="black" stroke="black" points="511.038,-47.4414 506.621,-37.8113 504.068,-48.0941 511.038,-47.4414"/>
</g>
<!-- e3 -->
<g id="node22" class="node">
<path fill="none" stroke="black" d="M676,-91.5C676,-91.5 740,-91.5 740,-91.5 746,-91.5 752,-97.5 752,-103.5 752,-103.5 752,-115.5 752,-115.5 752,-121.5 746,-127.5 740,-127.5 740,-127.5 676,-127.5 676,-127.5 670,-127.5 664,-121.5 664,-115.5 664,-115.5 664,-103.5 664,-103.5 664,-97.5 670,-91.5 676,-91.5"/>
<text text-anchor="middle" x="708" y="-105.8" font-family="Times New Roman,serif" font-size="14.00">risque &lt;10%</text>
</g>
<!-- d2&#45;&gt;e3 -->
<g id="edge23" class="edge">
<path fill="none" stroke="black" d="M631.627,-188.927C646.215,-173.945 667.608,-151.978 684.043,-135.101"/>
<polygon fill="black" stroke="black" points="686.735,-137.354 691.204,-127.748 681.72,-132.47 686.735,-137.354"/>
</g>
<!-- e4 -->
<g id="node23" class="node">
<path fill="none" stroke="black" d="M570,-91.5C570,-91.5 634,-91.5 634,-91.5 640,-91.5 646,-97.5 646,-103.5 646,-103.5 646,-115.5 646,-115.5 646,-121.5 640,-127.5 634,-127.5 634,-127.5 570,-127.5 570,-127.5 564,-127.5 558,-121.5 558,-115.5 558,-115.5 558,-103.5 558,-103.5 558,-97.5 564,-91.5 570,-91.5"/>
<text text-anchor="middle" x="602" y="-105.8" font-family="Times New Roman,serif" font-size="14.00">risque &gt;10%</text>
</g>
<!-- d2&#45;&gt;e4 -->
<g id="edge24" class="edge">
<path fill="none" stroke="black" d="M612.676,-188.927C610.747,-174.755 607.967,-154.332 605.727,-137.88"/>
<polygon fill="black" stroke="black" points="609.165,-137.184 604.348,-127.748 602.229,-138.128 609.165,-137.184"/>
</g>
<!-- f2 -->
<g id="node24" class="node">
<path fill="none" stroke="green" d="M657,-0.5C657,-0.5 759,-0.5 759,-0.5 765,-0.5 771,-6.5 771,-12.5 771,-12.5 771,-26.5 771,-26.5 771,-32.5 765,-38.5 759,-38.5 759,-38.5 657,-38.5 657,-38.5 651,-38.5 645,-32.5 645,-26.5 645,-26.5 645,-12.5 645,-12.5 645,-6.5 651,-0.5 657,-0.5"/>
<text text-anchor="middle" x="708" y="-23.3" font-family="Times New Roman,serif" font-size="14.00">TDM à 1 ; 2 ; 4 ans</text>
<text text-anchor="middle" x="708" y="-8.3" font-family="Times New Roman,serif" font-size="14.00">Si stable : stop</text>
</g>
<!-- e3&#45;&gt;f2 -->
<g id="edge25" class="edge">
<path fill="none" stroke="black" d="M708,-91.114C708,-79.0596 708,-62.7364 708,-48.8205"/>
<polygon fill="black" stroke="black" points="711.5,-48.7587 708,-38.7587 704.5,-48.7587 711.5,-48.7587"/>
</g>
<!-- e4&#45;&gt;i3 -->
<g id="edge26" class="edge">
<path fill="none" stroke="black" d="M582.836,-91.114C568.127,-77.7698 547.652,-59.1944 531.393,-44.4444"/>
<polygon fill="black" stroke="black" points="533.552,-41.6774 523.794,-37.5504 528.849,-46.8618 533.552,-41.6774"/>
</g>
<!-- h2&#45;&gt;i2 -->
<g id="edge30" class="edge">
<path fill="none" stroke="black" d="M227.62,-91.114C238.637,-78.0125 253.895,-59.8681 266.185,-45.2526"/>
<polygon fill="black" stroke="black" points="268.905,-47.4567 272.662,-37.5504 263.547,-42.9514 268.905,-47.4567"/>
</g>
<!-- h3&#45;&gt;i3 -->
<g id="edge31" class="edge">
<path fill="none" stroke="black" d="M378.644,-91.3238C403.498,-77.3928 438.702,-57.6606 465.641,-42.561"/>
<polygon fill="black" stroke="black" points="467.422,-45.5754 474.433,-37.6329 463.999,-39.4692 467.422,-45.5754"/>
</g>
</g>
</svg>
