<?xml version="1.0" encoding="UTF-8" standalone="no"?>
<svg
   xmlns:dc="http://purl.org/dc/elements/1.1/"
   xmlns:cc="http://creativecommons.org/ns#"
   xmlns:rdf="http://www.w3.org/1999/02/22-rdf-syntax-ns#"
   xmlns:svg="http://www.w3.org/2000/svg"
   xmlns="http://www.w3.org/2000/svg"
   xmlns:sodipodi="http://sodipodi.sourceforge.net/DTD/sodipodi-0.dtd"
   xmlns:inkscape="http://www.inkscape.org/namespaces/inkscape"
   version="1.1"
   id="svg10"
   width="879"
   height="1496"
   viewBox="0 0 879 1496"
   sodipodi:docname="nascet2.svg"
   inkscape:version="1.0.2 (e86c870879, 2021-01-15, custom)">
  <metadata
     id="metadata16">
    <rdf:RDF>
      <cc:Work
         rdf:about="">
        <dc:format>image/svg+xml</dc:format>
        <dc:type
           rdf:resource="http://purl.org/dc/dcmitype/StillImage" />
        <dc:title></dc:title>
      </cc:Work>
    </rdf:RDF>
  </metadata>
  <defs
     id="defs14" />
  <sodipodi:namedview
     pagecolor="#ffffff"
     bordercolor="#666666"
     borderopacity="1"
     objecttolerance="10"
     gridtolerance="10"
     guidetolerance="10"
     inkscape:pageopacity="0"
     inkscape:pageshadow="2"
     inkscape:window-width="1920"
     inkscape:window-height="1017"
     id="namedview12"
     showgrid="false"
     inkscape:zoom="0.28241979"
     inkscape:cx="1056.9673"
     inkscape:cy="952.12728"
     inkscape:window-x="-8"
     inkscape:window-y="-8"
     inkscape:window-maximized="1"
     inkscape:current-layer="g18"
     inkscape:document-rotation="0" />
  <g
     inkscape:groupmode="layer"
     inkscape:label="Image"
     id="g18">
    <path
       id="path22"
       style="fill:#000000"
       d="m 552.66797,38.498047 c -48.79431,-2.590803 -126.46663,14.549157 -97.80859,78.769533 3.56569,66.0404 15.42187,135.30905 -14.40626,197.466 -36.72392,65.09893 -54.14829,138.22782 -57.71289,212.45783 -5.54183,67.85234 -11.58502,136.32055 1.0448,203.629 14.26967,73.02422 44.14381,141.57572 65.56867,212.65908 12.85146,28.27702 24.28953,46.14296 -6.13104,14.19824 -41.23565,-37.15432 -69.78287,-85.8564 -101.18532,-131.03605 -45.8678,-82.71417 -77.01965,-172.85994 -108.2932,-261.95027 13.50896,-69.875 -64.35175,-81.57824 -117.58123,-73.1889 -68.710534,1.40287 -60.926344,70.38595 -40.892738,115.23951 25.632358,57.70999 42.628438,118.76103 72.460288,174.49236 13.4998,38.4375 35.27445,87.3872 49.35156,116.58007 -44.40782,-11.7855 -75.43719,-54.76572 -107.798827,-77.0957 15.208787,39.45902 65.426047,69.59298 106.033207,88.36328 61.96196,37.29791 -10.33617,-37.66748 -10.05664,-66.39062 C 164.58019,797.88096 147.15059,751.83227 124.90872,707.9026 110.85867,654.44829 78.027909,606.28801 73.955842,550.3785 c 44.991868,17.5913 113.670408,-3.79914 146.327348,-0.0562 22.94246,82.30277 58.04684,160.80765 90.90235,239.33593 31.11738,60.89792 72.66542,116.32966 117.49804,167.70899 14.44193,22.34933 78.4932,62.12341 40.99024,10.16797 C 446.68593,917.04108 436.19451,862.20838 413.76171,811.53711 392.44619,739.73357 379.73186,664.87423 387.22039,589.65369 392.4784,498.37738 399.39246,403.2543 446.8553,322.41261 c 35.82156,-68.75887 21.35541,-147.51582 17.27555,-221.2212 55.31026,23.51934 117.0834,18.73021 175.51651,13.29676 -4.29051,62.21484 1.13239,127.03051 26.15927,184.95519 -15.54366,49.66023 -47.71304,101.12126 -73.47266,149.10937 -20.7005,45.85829 -24.04173,97.62017 -55.70059,138.78426 -24.22074,44.04851 -34.42533,93.63904 -16.53701,141.9517 10.20669,51.72468 69.75769,73.2811 90.53057,121.34217 31.60337,42.65252 39.87603,98.12507 76.21005,137.68532 8.87731,47.87292 -28.44875,94.59192 -15.37295,144.98462 3.2836,66.6229 10.25773,133.092 15.82499,199.3594 13.56099,45.3479 -33.98016,0.3913 -58.26133,16.4079 -59.43416,4.7145 -122.60961,-3.9837 -178.47304,21.3089 -6.36941,-70.9151 -29.19448,-139.2009 -37.62657,-210.0016 -16.46977,-43.5765 -39.13807,-84.354 -79.71528,-110.7025 C 266.28025,995.17769 187.83998,957.1136 119.84177,903.93555 100.86032,883.12514 23.927317,857.95604 83.439198,892.9074 c 56.350282,34.79763 107.420952,77.4591 166.051002,108.784 47.29489,33.9241 101.04959,63.2681 133.5625,113.2832 19.75777,47.1743 30.39359,96.1259 38.28342,146.7539 17.76615,47.6186 8.9764,106.155 31.37674,148.4629 62.60543,26.655 134.84736,19.6436 200.30664,7.2324 68.94481,-2.5125 44.61957,-64.0989 40.66992,-109.166 -5.55611,-64.9127 -10.13113,-130.0437 -15.44922,-194.9433 0.47785,-46.3657 22.18562,-92.1209 30.49999,-135.12309 -38.16201,6.98047 -50.61817,-72.63222 -73.07812,-104.33789 -27.60833,-41.06621 -50.02005,-87.68025 -92.09402,-116.06686 -28.50359,-45.90211 -31.37169,-110.10911 -1.35069,-157.18945 32.46603,-45.51216 38.90112,-99.99249 59.4737,-150.54864 32.23779,-42.65837 41.9718,-98.96048 78.70538,-138.4724 C 662.39929,267.10602 646.69973,220.38993 647.97991,171.32493 641.89859,128.19861 681.84533,55.831652 614.15882,47.352519 593.91731,42.727016 572.78899,42.443455 552.66797,38.498047 Z m -4.87305,12.330078 c 30.73209,-7.74764 131.1552,18.226339 88.48633,53.203125 C 579.92882,109.04682 517.98296,115.67011 466.33203,88.441406 434.88161,55.439193 533.80428,50.28032 547.79492,50.828125 Z M 683.37305,322.51562 c -12.4586,25.58768 28.29697,20.03015 0,0 z m 8.45507,33.07618 c -4.644,25.44134 33.67899,36.44507 8.06722,2.86742 l -3.92854,-2.32445 z m 20.32227,44.05468 c -8.23053,20.55904 39.19895,46.14474 9.86302,6.48857 -2.3866,-2.6902 -5.67719,-6.79292 -9.86302,-6.48857 z m 26.58789,38.64649 c -15.89037,19.61026 32.52698,42.23157 4.57617,4.5859 l -1.98619,-3.86411 -2.58998,-0.72183 z m 18.07617,35.58789 c -12.60937,12.42646 31.03239,56.39662 11.9668,16.86719 -4.42393,-3.36752 -3.92525,-16.79177 -11.9668,-16.86719 z m -620.57422,27.81055 c 29.82525,-8.90953 126.31481,19.28281 53.22742,41.44014 -34.8567,-3.00016 -106.826485,21.71068 -116.975416,-19.95772 15.865992,-18.06872 41.071156,-21.43886 63.747996,-21.48242 z m 641.9375,15.94726 c -15.49392,14.42338 26.60202,59.2972 6.94532,11.99219 -2.1611,-3.7721 -2.71064,-9.54046 -6.94532,-11.99219 z m 12.48047,49.55274 c -7.31742,24.82507 27.1149,44.67756 7.96192,5.90162 l -3.91504,-5.27858 z m 10.81641,45.17578 c -13.53753,20.65084 23.55554,55.36787 6.01367,8.82424 l -2.31894,-6.03142 -3.69473,-2.7928 z m 7.14258,50.30078 c -19.21101,14.77827 7.28769,64.578 1.60551,13.01172 0.54708,-4.60616 7.19137,-11.89596 -1.60551,-13.01172 z m -3.10547,54.67773 c -18.17831,24.41084 -0.29813,55.76152 4.29344,10.38966 0.35314,-3.65134 -0.0766,-8.9782 -4.29344,-10.38966 z m -14.22656,48.31836 c -29.7696,47.85516 19.85614,27.33946 0,0 z m -10.97852,41.25586 c -24.11953,24.45714 -0.72019,50.5084 4.55274,4.77149 1.45694,-3.11843 -2.30915,-4.61674 -4.55274,-4.77149 z m -16.40039,50.4961 c -31.99234,29.56968 2.87379,58.47691 0,0 z m -19.94531,42.05468 c -31.65785,27.23586 8.47731,43.05392 0,0 z m -20.38672,37.85352 c -26.88718,31.41563 8.15746,36.01679 2.04883,0.63086 z m -71.80078,421.36718 c 46.62255,-6.5842 53.10274,46.5237 6.42373,46.9784 -63.96372,14.6135 -133.21232,18.2159 -196.33518,-1.6155 -31.72702,-44.3146 71.94021,-38.6098 101.47103,-42.3519 29.58521,0.29 58.92704,-1.6219 88.44042,-3.011 z" />
    <path
       id="path207"
       style="fill:none;fill-rule:evenodd;stroke:#000000;stroke-width:1px;stroke-linecap:butt;stroke-linejoin:miter;stroke-opacity:1"
       d="M 93.831951,823.24259 C 88.99055,853.00974 77.94532,868.11924 56.653254,878.12543" />
    <path
       id="path215"
       style="fill:#ff0000;stroke-width:1.77041"
       d="m 467.75845,104.04759 c -5.77363,43.10242 6.50617,92.97539 1.57677,138.79425 -7.31622,74.42283 -60.548,134.49356 -68.15874,209.13751 -17.64111,118.58237 -27.12979,242.75747 12.7673,358.04023 24.39777,59.99973 36.29953,124.98646 69.28158,181.4654 -34.7438,2.9874 -61.42513,-49.32554 -88.06081,-73.00536 -49.91843,-63.89029 -92.07062,-133.66466 -118.2865,-210.75959 -26.37751,-49.90241 -35.62743,-121.74634 -67.50152,-160.18447 -43.27651,12.6815 -91.15336,7.37946 -134.868221,6.22658 6.473983,57.65022 38.784011,109.82038 55.284751,165.26935 35.58181,65.22585 52.91584,139.58515 95.10807,201.22416 -38.7738,-10.63538 -87.49534,-39.55448 -118.53172,-72.80951 -27.16822,-26.61686 -41.277915,48.53571 -1.56908,46.85719 73.43336,54.3698 154.21053,97.92239 226.6713,153.57357 53.33209,35.959 81.93514,96.4772 89.06469,158.7728 11.29736,53.3455 20.78156,110.0992 33.33543,161.3284 68.63111,-23.396 142.61202,-15.4136 213.72755,-19.9227 44.20414,8.0661 3.60882,-85.5817 11.00681,-121.7455 -5.17782,-68.5565 -18.3739,-140.691 9.75725,-206.2479 2.1639,-49.05651 -46.48673,-85.79308 -56.6485,-134.47126 -23.51215,-67.05178 -101.57525,-99.23617 -114.27437,-168.37769 -21.69456,-63.45824 15.71408,-123.25261 44.9239,-176.91981 13.48566,-59.99079 41.32416,-114.0688 70.74694,-167.77802 37.45401,-46.29478 32.37666,-92.04193 11.93585,-144.74008 -19.14191,-33.63563 17.66873,-111.68494 -26.42827,-111.71608 -50.72346,6.27678 -101.81583,2.59955 -150.86046,-12.01147 z" />
    <path
       id="path217"
       style="fill:#ff0000;stroke-width:1.77041"
       d="m 138.71729,502.10032 c -62.716027,-13.52688 -86.990286,56.41034 -12.79366,44.26016 25.4241,5.02855 125.51576,-6.93492 73.44958,-37.29698 -19.71422,-5.21627 -40.29558,-7.09285 -60.65592,-6.96318 z" />
    <path
       id="path219"
       style="fill:#ff0000;stroke-width:1.77041"
       d="M 547.20232,50.834888 C 516.15321,43.527049 421.61509,70.387269 486.73071,98.131081 537.44897,108.64251 608.14605,119.89694 648.1942,92.73591 644.28543,48.808219 578.5902,54.849277 547.20232,50.834888 Z" />
    <path
       id="path221"
       style="fill:#ff0000;stroke-width:1.77041"
       d="m 618.13991,1360.0735 c -54.12257,3.4819 -111.96969,-2.6292 -162.30006,21.0495 3.58807,52.0905 104.10737,32.2327 145.56899,34.1635 33.9556,2.4076 136.65254,-26.3391 62.76184,-56.2089 -15.34359,0.332 -30.68718,0.6639 -46.03077,0.9959 z" />
    <path
       id="path225"
       style="fill:none;fill-rule:evenodd;stroke:#000000;stroke-width:1px;stroke-linecap:butt;stroke-linejoin:miter;stroke-opacity:1"
       d="m 667.83946,307.1957 c 21.81242,9.0578 23.57072,47.51164 33.67565,67.37746 9.39038,10.91589 11.39673,29.24086 22.58429,37.93334 5.93719,18.4353 19.45801,30.78491 21.24497,51.34201 18.88676,19.5708 23.73918,45.50652 35.40828,67.27574 4.04657,31.96465 29.42923,64.72256 18.98904,95.51747 11.28099,23.42695 12.96326,51.02086 7.12457,82.85176 -10.68737,32.40837 -9.78496,72.2321 -24.34319,104.89704 -4.18917,10.594 -9.10165,46.17689 -7.68455,14.34026 -6.75031,44.24651 -34.93331,76.54096 -50.04231,118.87362 -9.00641,16.85424 -26.60268,30.55958 -23.76094,39.71282 -7.30216,-6.82579 -14.42482,-1.92044 -10.47784,7.50459" />
    <path
       id="path229"
       style="fill:#ffcc00;stroke-width:0.885207"
       d="m 676.95098,316.39175 c -37.61681,50.78436 -61.76008,112.17524 -89.30951,168.75917 -6.6071,66.32993 -58.39125,115.45948 -68.97658,180.57432 -7.55771,71.91828 49.66882,108.38678 85.27127,160.17615 35.23739,42.941 50.78478,97.02479 79.81996,143.31887 38.26385,20.66312 47.39339,-65.21387 71.14832,-90.87301 19.26799,-43.71043 27.25577,-86.14479 42.24633,-130.44998 11.35779,-43.35801 12.56803,-86.12969 2.34129,-131.01747 -2.51318,-47.30572 -26.00194,-94.55047 -44.40546,-139.06718 -24.23653,-40.20368 -45.05784,-75.57617 -62.07121,-118.93107 -1.41324,-15.30673 -10.42802,-27.50413 -16.06441,-42.4898 z" />
  </g>
</svg>
